<svg xmlns="http://www.w3.org/2000/svg" xmlns:xlink="http://www.w3.org/1999/xlink" width="1344" zoomAndPan="magnify" viewBox="0 0 1008 1295.99994" height="1728" preserveAspectRatio="xMidYMid meet" version="1.0"><defs><clipPath id="7ce4d979a3"><path d="M 0 0 L 491.25 0 L 491.25 491.25 L 0 491.25 Z M 0 0 " clip-rule="nonzero"/></clipPath></defs><rect x="-100.8" width="1209.6" fill="#ffffff" y="-129.599994" height="1555.199927" fill-opacity="1"/><rect x="-100.8" width="1209.6" fill="#0e1b3c" y="-129.599994" height="1555.199927" fill-opacity="1"/><g clip-path="url(#7ce4d979a3)"><path fill="#ab8f1f" d="M 491.457031 245.726562 C 491.457031 249.75 491.355469 253.769531 491.160156 257.785156 C 490.960938 261.800781 490.667969 265.8125 490.273438 269.8125 C 489.878906 273.816406 489.386719 277.804688 488.796875 281.785156 C 488.207031 285.761719 487.519531 289.722656 486.734375 293.667969 C 485.949219 297.609375 485.066406 301.535156 484.089844 305.433594 C 483.113281 309.335938 482.042969 313.210938 480.875 317.058594 C 479.707031 320.90625 478.445312 324.722656 477.089844 328.511719 C 475.734375 332.296875 474.289062 336.046875 472.75 339.761719 C 471.210938 343.480469 469.582031 347.152344 467.863281 350.789062 C 466.144531 354.425781 464.335938 358.015625 462.441406 361.5625 C 460.542969 365.109375 458.5625 368.605469 456.496094 372.058594 C 454.429688 375.507812 452.277344 378.902344 450.042969 382.246094 C 447.808594 385.589844 445.492188 388.878906 443.097656 392.105469 C 440.703125 395.335938 438.230469 398.507812 435.675781 401.617188 C 433.125 404.722656 430.5 407.769531 427.800781 410.75 C 425.097656 413.726562 422.328125 416.640625 419.484375 419.484375 C 416.640625 422.328125 413.726562 425.097656 410.75 427.800781 C 407.769531 430.5 404.722656 433.125 401.617188 435.675781 C 398.507812 438.230469 395.335938 440.703125 392.105469 443.097656 C 388.878906 445.492188 385.589844 447.808594 382.246094 450.042969 C 378.902344 452.277344 375.507812 454.425781 372.058594 456.496094 C 368.609375 458.5625 365.109375 460.542969 361.5625 462.441406 C 358.015625 464.335938 354.425781 466.144531 350.789062 467.863281 C 347.152344 469.582031 343.480469 471.210938 339.761719 472.75 C 336.046875 474.289062 332.296875 475.734375 328.511719 477.089844 C 324.722656 478.445312 320.90625 479.707031 317.058594 480.875 C 313.210938 482.042969 309.335938 483.113281 305.433594 484.089844 C 301.535156 485.066406 297.609375 485.949219 293.667969 486.734375 C 289.722656 487.519531 285.761719 488.207031 281.785156 488.796875 C 277.804688 489.386719 273.816406 489.878906 269.8125 490.273438 C 265.8125 490.667969 261.800781 490.960938 257.785156 491.160156 C 253.769531 491.355469 249.75 491.457031 245.726562 491.457031 C 241.707031 491.457031 237.6875 491.355469 233.671875 491.160156 C 229.652344 490.960938 225.644531 490.667969 221.640625 490.273438 C 217.640625 489.878906 213.648438 489.386719 209.671875 488.796875 C 205.695312 488.207031 201.734375 487.519531 197.789062 486.734375 C 193.84375 485.949219 189.921875 485.066406 186.019531 484.089844 C 182.121094 483.113281 178.246094 482.042969 174.398438 480.875 C 170.546875 479.707031 166.730469 478.445312 162.945312 477.089844 C 159.15625 475.734375 155.40625 474.289062 151.691406 472.75 C 147.976562 471.210938 144.300781 469.582031 140.664062 467.863281 C 137.03125 466.144531 133.4375 464.335938 129.890625 462.441406 C 126.347656 460.542969 122.847656 458.5625 119.398438 456.496094 C 115.949219 454.425781 112.550781 452.277344 109.207031 450.042969 C 105.863281 447.808594 102.578125 445.492188 99.347656 443.097656 C 96.117188 440.703125 92.949219 438.230469 89.839844 435.675781 C 86.730469 433.125 83.6875 430.5 80.707031 427.800781 C 77.726562 425.097656 74.816406 422.328125 71.972656 419.484375 C 69.128906 416.640625 66.355469 413.726562 63.65625 410.75 C 60.953125 407.769531 58.328125 404.722656 55.777344 401.617188 C 53.226562 398.507812 50.753906 395.335938 48.355469 392.105469 C 45.960938 388.878906 43.648438 385.589844 41.414062 382.246094 C 39.179688 378.902344 37.027344 375.507812 34.960938 372.058594 C 32.890625 368.605469 30.910156 365.109375 29.015625 361.5625 C 27.121094 358.015625 25.3125 354.425781 23.59375 350.789062 C 21.875 347.152344 20.242188 343.480469 18.703125 339.761719 C 17.164062 336.046875 15.71875 332.296875 14.363281 328.511719 C 13.007812 324.722656 11.75 320.90625 10.582031 317.058594 C 9.414062 313.210938 8.339844 309.335938 7.363281 305.433594 C 6.386719 301.535156 5.507812 297.609375 4.722656 293.667969 C 3.9375 289.722656 3.25 285.761719 2.660156 281.785156 C 2.070312 277.804688 1.578125 273.816406 1.183594 269.8125 C 0.789062 265.8125 0.492188 261.800781 0.296875 257.785156 C 0.0976562 253.769531 0 249.75 0 245.726562 C 0 241.707031 0.0976562 237.6875 0.296875 233.671875 C 0.492188 229.652344 0.789062 225.644531 1.183594 221.640625 C 1.578125 217.640625 2.070312 213.648438 2.660156 209.671875 C 3.25 205.695312 3.9375 201.734375 4.722656 197.789062 C 5.507812 193.84375 6.386719 189.921875 7.363281 186.019531 C 8.339844 182.121094 9.414062 178.246094 10.582031 174.398438 C 11.75 170.546875 13.007812 166.730469 14.363281 162.945312 C 15.71875 159.15625 17.164062 155.40625 18.703125 151.691406 C 20.242188 147.976562 21.875 144.300781 23.59375 140.664062 C 25.3125 137.03125 27.121094 133.4375 29.015625 129.890625 C 30.910156 126.347656 32.890625 122.847656 34.960938 119.398438 C 37.027344 115.949219 39.179688 112.550781 41.414062 109.207031 C 43.648438 105.863281 45.960938 102.578125 48.355469 99.347656 C 50.753906 96.117188 53.226562 92.949219 55.777344 89.839844 C 58.328125 86.730469 60.953125 83.6875 63.65625 80.707031 C 66.355469 77.726562 69.128906 74.816406 71.972656 71.972656 C 74.816406 69.128906 77.726562 66.355469 80.707031 63.65625 C 83.6875 60.953125 86.730469 58.328125 89.839844 55.777344 C 92.949219 53.226562 96.117188 50.753906 99.347656 48.355469 C 102.578125 45.960938 105.863281 43.648438 109.207031 41.414062 C 112.550781 39.179688 115.949219 37.027344 119.398438 34.960938 C 122.847656 32.890625 126.347656 30.910156 129.890625 29.015625 C 133.4375 27.121094 137.03125 25.3125 140.664062 23.59375 C 144.300781 21.871094 147.976562 20.242188 151.691406 18.703125 C 155.40625 17.164062 159.15625 15.71875 162.945312 14.363281 C 166.730469 13.007812 170.546875 11.75 174.398438 10.582031 C 178.246094 9.414062 182.121094 8.339844 186.019531 7.363281 C 189.921875 6.386719 193.84375 5.507812 197.789062 4.722656 C 201.734375 3.9375 205.695312 3.25 209.671875 2.660156 C 213.648438 2.070312 217.640625 1.578125 221.640625 1.183594 C 225.644531 0.789062 229.652344 0.492188 233.671875 0.296875 C 237.6875 0.0976562 241.707031 0 245.726562 0 C 249.75 0 253.769531 0.0976562 257.785156 0.296875 C 261.800781 0.492188 265.8125 0.789062 269.8125 1.183594 C 273.816406 1.578125 277.804688 2.070312 281.785156 2.660156 C 285.761719 3.25 289.722656 3.9375 293.667969 4.722656 C 297.609375 5.507812 301.535156 6.386719 305.433594 7.363281 C 309.335938 8.339844 313.210938 9.414062 317.058594 10.582031 C 320.90625 11.75 324.722656 13.007812 328.511719 14.363281 C 332.296875 15.71875 336.046875 17.164062 339.761719 18.703125 C 343.480469 20.242188 347.152344 21.871094 350.789062 23.59375 C 354.425781 25.3125 358.015625 27.121094 361.5625 29.015625 C 365.109375 30.910156 368.605469 32.890625 372.058594 34.960938 C 375.507812 37.027344 378.902344 39.179688 382.246094 41.414062 C 385.589844 43.648438 388.878906 45.960938 392.105469 48.355469 C 395.335938 50.753906 398.507812 53.226562 401.617188 55.777344 C 404.722656 58.328125 407.769531 60.953125 410.75 63.65625 C 413.726562 66.355469 416.640625 69.128906 419.484375 71.972656 C 422.328125 74.816406 425.097656 77.726562 427.800781 80.707031 C 430.5 83.6875 433.125 86.730469 435.675781 89.839844 C 438.230469 92.949219 440.703125 96.117188 443.097656 99.347656 C 445.492188 102.578125 447.808594 105.863281 450.042969 109.207031 C 452.277344 112.550781 454.425781 115.949219 456.496094 119.398438 C 458.5625 122.847656 460.542969 126.347656 462.441406 129.890625 C 464.335938 133.4375 466.144531 137.03125 467.863281 140.664062 C 469.582031 144.300781 471.210938 147.976562 472.75 151.691406 C 474.289062 155.40625 475.734375 159.15625 477.089844 162.945312 C 478.445312 166.730469 479.707031 170.546875 480.875 174.398438 C 482.042969 178.246094 483.113281 182.121094 484.089844 186.019531 C 485.066406 189.921875 485.949219 193.84375 486.734375 197.789062 C 487.519531 201.734375 488.207031 205.695312 488.796875 209.671875 C 489.386719 213.648438 489.878906 217.640625 490.273438 221.640625 C 490.667969 225.644531 490.960938 229.652344 491.160156 233.671875 C 491.355469 237.6875 491.457031 241.707031 491.457031 245.726562 Z M 491.457031 245.726562 " fill-opacity="1" fill-rule="nonzero"/></g><path fill="#fffffe" d="M 220.34375 95.222656 C 211.265625 95.222656 201.097656 97.914062 192.050781 102.066406 C 169.15625 112.597656 148.789062 134.429688 158.210938 157.484375 C 158.527344 158.28125 158.46875 159.1875 158.039062 159.933594 C 157.609375 160.675781 156.863281 161.175781 156 161.285156 C 155.828125 161.308594 137.472656 163.84375 127.878906 177.800781 C 121.761719 186.699219 120.378906 198.410156 123.828125 212.609375 C 124.058594 213.628906 123.714844 214.699219 122.910156 215.375 C 121.875 216.269531 97.457031 237.726562 119.980469 268.015625 C 120.78125 269.082031 120.695312 270.5625 119.804688 271.546875 C 119.691406 271.652344 109.808594 282.703125 111.390625 297.078125 C 112.539062 307.625 119.460938 317.472656 131.984375 326.34375 C 132.789062 326.921875 133.25 327.886719 133.136719 328.875 C 130.921875 351.5625 151.289062 380.179688 177.65625 391.359375 C 191.5625 397.265625 218.445312 402.878906 242.949219 374.726562 L 242.949219 106.183594 C 238.640625 98.359375 230.136719 95.222656 220.34375 95.222656 Z M 200.292969 401.703125 C 192.078125 401.703125 183.660156 399.941406 175.476562 396.464844 C 161.714844 390.621094 149.105469 380.316406 140.027344 367.441406 C 131.238281 355.007812 126.816406 341.765625 127.503906 329.945312 C 114.40625 320.320312 107.140625 309.449219 105.875 297.605469 C 104.4375 284.199219 111.1875 273.617188 114.261719 269.566406 C 102.285156 252.339844 104.007812 237.601562 107.683594 228.144531 C 110.816406 220.128906 115.757812 214.617188 118.054688 212.328125 C 114.722656 197.207031 116.503906 184.523438 123.339844 174.613281 C 131.785156 162.335938 145.601562 157.875 151.921875 156.414062 C 144.050781 131.203125 165.507812 108.160156 189.722656 97.023438 C 211.09375 87.210938 238.496094 85.277344 248.207031 104.226562 C 248.40625 104.617188 248.492188 105.050781 248.492188 105.488281 L 248.492188 375.753906 C 248.492188 376.414062 248.261719 377.050781 247.832031 377.550781 C 237.320312 389.933594 225.199219 397.652344 211.8125 400.503906 C 208.046875 401.304688 204.199219 401.703125 200.292969 401.703125 Z M 200.292969 401.703125 " fill-opacity="1" fill-rule="nonzero"/><path fill="#fffffe" d="M 245.734375 169.8125 C 245.679688 169.8125 245.648438 169.8125 245.59375 169.808594 C 244.214844 169.742188 211.867188 167.960938 200.265625 149.992188 C 199.429688 148.703125 199.777344 146.988281 201.070312 146.15625 C 202.359375 145.324219 204.085938 145.695312 204.917969 146.976562 C 215 162.554688 245.5625 164.253906 245.851562 164.265625 C 247.402344 164.34375 248.578125 165.644531 248.492188 167.175781 C 248.433594 168.65625 247.199219 169.8125 245.734375 169.8125 Z M 245.734375 169.8125 " fill-opacity="1" fill-rule="nonzero"/><path fill="#fffffe" d="M 153.644531 201.207031 C 153.183594 201.207031 152.695312 201.09375 152.265625 200.851562 C 150.945312 200.101562 150.457031 198.410156 151.203125 197.074219 C 156.285156 188.046875 165.621094 185.226562 173.636719 184.660156 C 158.726562 174.65625 153.300781 160.238281 153.039062 159.484375 C 152.523438 158.046875 153.242188 156.449219 154.707031 155.929688 C 156.144531 155.402344 157.722656 156.144531 158.238281 157.578125 C 158.328125 157.785156 166.140625 178.363281 188.488281 185.8125 C 189.894531 186.28125 190.671875 187.777344 190.269531 189.207031 C 189.867188 190.632812 188.402344 191.488281 186.964844 191.140625 C 186.734375 191.085938 163.898438 185.84375 156.058594 199.792969 C 155.539062 200.699219 154.59375 201.207031 153.644531 201.207031 Z M 153.644531 201.207031 " fill-opacity="1" fill-rule="nonzero"/><path fill="#fffffe" d="M 137.644531 252.152344 C 136.726562 252.152344 135.804688 251.6875 135.289062 250.835938 C 134.484375 249.53125 134.886719 247.820312 136.207031 247.019531 C 148.070312 239.703125 150.914062 228.835938 150.945312 228.726562 C 151.230469 227.59375 152.179688 226.757812 153.355469 226.644531 C 164.386719 225.539062 170.707031 226.96875 173.292969 231.148438 C 174.210938 232.65625 174.46875 234.269531 174.355469 235.851562 C 177.601562 233.265625 182.023438 229.789062 187.882812 225.214844 C 188 225.140625 188.085938 225.070312 188.199219 225.011719 C 200.695312 217.683594 214.886719 215.839844 229.246094 219.675781 C 240.019531 222.5625 247.054688 227.585938 247.34375 227.800781 C 248.609375 228.695312 248.867188 230.433594 247.976562 231.671875 C 247.085938 232.914062 245.332031 233.191406 244.097656 232.296875 C 243.007812 231.515625 218.074219 214.042969 191.160156 229.703125 C 183.660156 235.523438 178.632812 239.550781 175.273438 242.21875 C 173.148438 243.921875 171.742188 245.046875 170.792969 245.761719 C 169.527344 246.707031 167.660156 248.136719 165.824219 246.496094 C 163.984375 244.839844 165.277344 242.828125 166.054688 241.625 C 167.058594 240.066406 169.699219 235.917969 168.550781 234.050781 C 168.121094 233.347656 165.9375 231.222656 155.710938 232.003906 C 154.246094 235.957031 149.882812 245.117188 139.109375 251.742188 C 138.648438 252.019531 138.160156 252.152344 137.644531 252.152344 Z M 137.644531 252.152344 " fill-opacity="1" fill-rule="nonzero"/><path fill="#fffffe" d="M 153.84375 381.800781 C 153.671875 381.800781 153.441406 381.777344 153.242188 381.730469 C 151.75 381.398438 150.828125 379.914062 151.144531 378.417969 C 151.289062 377.851562 154.332031 364.320312 159.53125 350.660156 C 167 331.046875 174.757812 321.765625 183.289062 322.253906 C 184.582031 322.328125 185.644531 323.289062 185.875 324.566406 C 185.988281 325.234375 189.003906 341.238281 210.203125 350.449219 C 211.410156 350.972656 212.070312 352.269531 211.8125 353.558594 C 211.554688 354.84375 210.402344 355.765625 209.113281 355.765625 C 208.996094 355.765625 198.511719 355.863281 193.828125 361.398438 C 191.875 363.730469 191.214844 366.710938 191.847656 370.519531 C 192.105469 372.03125 191.074219 373.457031 189.578125 373.710938 C 188.054688 373.960938 186.648438 372.941406 186.390625 371.429688 C 185.472656 365.988281 186.5625 361.398438 189.609375 357.800781 C 192.453125 354.433594 196.585938 352.5625 200.292969 351.523438 C 187.136719 343.359375 182.511719 332.8125 181.019531 328.023438 C 170.992188 330.980469 160.855469 360.480469 156.574219 379.632812 C 156.285156 380.921875 155.136719 381.800781 153.84375 381.800781 Z M 153.84375 381.800781 " fill-opacity="1" fill-rule="nonzero"/><path fill="#fffffe" d="M 154.621094 326.078125 C 154.132812 326.078125 153.644531 325.949219 153.214844 325.683594 C 151.949219 324.925781 151.488281 323.320312 152.179688 322.03125 C 151.085938 321.226562 147.582031 320.320312 144.421875 320.074219 C 143.5625 320.007812 142.757812 319.527344 142.296875 318.78125 C 136.265625 309.128906 151.03125 294.894531 152.726562 293.308594 C 153.757812 292.339844 155.367188 292.308594 156.429688 293.226562 C 166.195312 301.585938 187.222656 281.839844 194.492188 273.527344 C 195.121094 272.816406 196.070312 272.472656 196.988281 272.609375 C 197.9375 272.75 198.714844 273.351562 199.117188 274.214844 C 212.042969 302.859375 244.902344 297.03125 245.21875 296.96875 C 246.710938 296.683594 248.175781 297.675781 248.464844 299.183594 C 248.75 300.6875 247.746094 302.140625 246.253906 302.421875 C 245.851562 302.492188 236.773438 304.152344 225.828125 301.851562 C 212.53125 299.054688 202.246094 291.589844 195.898438 280.164062 C 193.027344 283.148438 188.140625 287.878906 182.511719 292.066406 C 168.695312 302.328125 160.078125 301.894531 154.9375 298.9375 C 150.886719 303.175781 145.484375 310.410156 146.519531 314.710938 C 150.054688 315.144531 155.597656 316.351562 157.320312 319.675781 C 158.125 321.25 158.011719 323.046875 157.003906 324.730469 C 156.488281 325.597656 155.570312 326.078125 154.621094 326.078125 Z M 154.621094 326.078125 " fill-opacity="1" fill-rule="nonzero"/><path fill="#fffffe" d="M 291.179688 401.707031 C 287.269531 401.707031 283.394531 401.304688 279.628906 400.503906 C 266.273438 397.65625 254.152344 389.933594 243.609375 377.550781 C 242.632812 376.386719 242.777344 374.636719 243.925781 373.644531 C 245.105469 372.648438 246.855469 372.792969 247.832031 373.957031 C 272.535156 402.976562 299.765625 397.316406 313.8125 391.359375 C 340.152344 380.179688 360.546875 351.5625 358.308594 328.875 C 358.222656 327.886719 358.652344 326.921875 359.484375 326.34375 C 372.007812 317.457031 378.960938 307.589844 380.082031 297.019531 C 381.632812 282.59375 371.75 271.652344 371.664062 271.546875 C 370.773438 270.5625 370.6875 269.082031 371.492188 268.015625 C 394.011719 237.726562 369.597656 216.269531 368.535156 215.371094 C 367.757812 214.691406 367.414062 213.625 367.644531 212.609375 C 371.0625 198.410156 369.710938 186.699219 363.59375 177.800781 C 354 163.84375 335.644531 161.308594 335.472656 161.285156 C 334.609375 161.171875 333.863281 160.671875 333.433594 159.925781 C 333 159.183594 332.914062 158.28125 333.257812 157.484375 C 342.679688 134.429688 322.316406 112.597656 299.421875 102.066406 C 280.378906 93.320312 256.25 91.054688 248.207031 106.753906 C 247.515625 108.117188 245.820312 108.660156 244.472656 107.960938 C 243.09375 107.261719 242.574219 105.589844 243.265625 104.226562 C 252.972656 85.277344 280.378906 87.210938 301.71875 97.027344 C 325.964844 108.160156 347.421875 131.203125 339.523438 156.417969 C 345.871094 157.875 359.65625 162.335938 368.132812 174.613281 C 374.96875 184.527344 376.75 197.207031 373.386719 212.328125 C 375.714844 214.617188 380.625 220.132812 383.757812 228.144531 C 387.433594 237.601562 389.1875 252.339844 377.207031 269.566406 C 380.28125 273.617188 387.03125 284.199219 385.597656 297.605469 C 384.332031 309.449219 377.066406 320.324219 363.964844 329.945312 C 364.625 341.765625 360.230469 355.011719 351.441406 367.441406 C 342.335938 380.316406 329.753906 390.625 315.96875 396.464844 C 307.78125 399.941406 299.363281 401.707031 291.179688 401.707031 Z M 291.179688 401.707031 " fill-opacity="1" fill-rule="nonzero"/><path fill="#fffffe" d="M 245.734375 169.8125 C 244.269531 169.8125 243.035156 168.65625 242.949219 167.175781 C 242.890625 165.644531 244.070312 164.34375 245.59375 164.265625 C 245.90625 164.253906 276.472656 162.554688 286.554688 146.976562 C 287.386719 145.695312 289.082031 145.324219 290.375 146.15625 C 291.667969 146.988281 292.039062 148.703125 291.207031 149.992188 C 279.574219 167.960938 247.230469 169.742188 245.851562 169.808594 C 245.820312 169.8125 245.765625 169.8125 245.734375 169.8125 Z M 245.734375 169.8125 " fill-opacity="1" fill-rule="nonzero"/><path fill="#fffffe" d="M 337.828125 201.207031 C 336.851562 201.207031 335.929688 200.699219 335.414062 199.792969 C 327.542969 185.800781 304.734375 191.085938 304.507812 191.140625 C 303.070312 191.488281 301.605469 190.632812 301.203125 189.207031 C 300.800781 187.777344 301.578125 186.28125 302.984375 185.8125 C 325.417969 178.332031 333.144531 157.792969 333.203125 157.585938 C 333.71875 156.148438 335.328125 155.402344 336.765625 155.929688 C 338.199219 156.453125 338.949219 158.046875 338.429688 159.484375 C 338.144531 160.238281 332.742188 174.65625 317.835938 184.660156 C 325.847656 185.226562 335.15625 188.046875 340.238281 197.074219 C 340.988281 198.410156 340.527344 200.101562 339.175781 200.851562 C 338.746094 201.09375 338.285156 201.207031 337.828125 201.207031 Z M 337.828125 201.207031 " fill-opacity="1" fill-rule="nonzero"/><path fill="#fffffe" d="M 353.796875 252.152344 C 353.308594 252.152344 352.820312 252.019531 352.363281 251.742188 C 341.589844 245.117188 337.222656 235.957031 335.757812 232.003906 C 325.53125 231.222656 323.351562 233.347656 322.917969 234.050781 C 321.769531 235.917969 324.414062 240.066406 325.417969 241.628906 C 326.164062 242.828125 327.457031 244.839844 325.621094 246.496094 C 323.808594 248.136719 321.914062 246.707031 320.679688 245.761719 C 319.730469 245.046875 318.324219 243.921875 316.199219 242.21875 C 312.835938 239.550781 307.78125 235.523438 300.3125 229.703125 C 273.367188 214.027344 248.40625 231.542969 247.34375 232.296875 C 246.109375 233.191406 244.386719 232.90625 243.496094 231.667969 C 242.578125 230.425781 242.863281 228.695312 244.097656 227.800781 C 244.386719 227.585938 251.421875 222.5625 262.222656 219.675781 C 276.558594 215.835938 290.777344 217.683594 303.269531 225.011719 C 303.386719 225.070312 303.472656 225.140625 303.558594 225.214844 C 309.445312 229.789062 313.84375 233.265625 317.089844 235.851562 C 316.972656 234.269531 317.261719 232.65625 318.179688 231.148438 C 320.734375 226.96875 327.085938 225.535156 338.113281 226.644531 C 339.261719 226.757812 340.238281 227.59375 340.527344 228.726562 C 340.554688 228.828125 343.484375 239.765625 355.261719 247.019531 C 356.554688 247.820312 356.988281 249.53125 356.183594 250.835938 C 355.636719 251.683594 354.746094 252.152344 353.796875 252.152344 Z M 353.796875 252.152344 " fill-opacity="1" fill-rule="nonzero"/><path fill="#fffffe" d="M 337.539062 381.855469 C 336.277344 381.855469 335.128906 380.976562 334.839844 379.683594 C 330.5625 360.539062 320.421875 331.042969 310.367188 328.082031 C 308.875 332.871094 304.25 343.417969 291.09375 351.578125 C 294.828125 352.617188 298.933594 354.492188 301.777344 357.859375 C 304.824219 361.460938 305.914062 366.042969 305.023438 371.488281 C 304.765625 373 303.328125 374.019531 301.835938 373.769531 C 300.3125 373.515625 299.308594 372.089844 299.539062 370.578125 C 300.171875 366.761719 299.539062 363.773438 297.554688 361.441406 C 293.648438 356.835938 285.234375 355.824219 282.304688 355.824219 C 280.980469 355.824219 279.863281 354.902344 279.601562 353.613281 C 279.316406 352.328125 280.003906 351.03125 281.183594 350.507812 C 302.554688 341.226562 305.511719 324.789062 305.542969 324.625 C 305.742188 323.347656 306.835938 322.386719 308.125 322.3125 C 316.628906 321.8125 324.386719 331.101562 331.882812 350.71875 C 337.082031 364.375 340.125 377.910156 340.242188 378.480469 C 340.585938 379.972656 339.636719 381.453125 338.144531 381.789062 C 337.941406 381.835938 337.742188 381.855469 337.539062 381.855469 Z M 337.539062 381.855469 " fill-opacity="1" fill-rule="nonzero"/><path fill="#fffffe" d="M 336.820312 326.078125 C 335.871094 326.078125 334.953125 325.597656 334.4375 324.730469 C 333.429688 323.046875 333.316406 321.25 334.148438 319.675781 C 335.871094 316.351562 341.417969 315.144531 344.921875 314.710938 C 345.984375 310.402344 340.582031 303.171875 336.535156 298.933594 C 331.363281 301.894531 322.773438 302.328125 308.957031 292.066406 C 303.328125 287.878906 298.445312 283.148438 295.570312 280.164062 C 289.195312 291.589844 278.941406 299.054688 265.613281 301.851562 C 254.667969 304.15625 245.589844 302.492188 245.21875 302.421875 C 243.722656 302.140625 242.71875 300.6875 243.007812 299.183594 C 243.292969 297.679688 244.730469 296.683594 246.253906 296.96875 C 246.453125 297.007812 254.839844 298.488281 264.664062 296.386719 C 277.648438 293.605469 286.953125 286.144531 292.355469 274.214844 C 292.726562 273.351562 293.53125 272.75 294.453125 272.609375 C 295.398438 272.476562 296.347656 272.816406 296.949219 273.527344 C 304.246094 281.839844 325.273438 301.585938 335.011719 293.226562 C 336.101562 292.308594 337.683594 292.339844 338.714844 293.308594 C 340.441406 294.894531 355.203125 309.128906 349.171875 318.78125 C 348.710938 319.527344 347.910156 320.007812 347.019531 320.074219 C 343.886719 320.320312 340.382812 321.226562 339.292969 322.03125 C 339.953125 323.320312 339.519531 324.925781 338.257812 325.683594 C 337.796875 325.949219 337.308594 326.078125 336.820312 326.078125 Z M 336.820312 326.078125 " fill-opacity="1" fill-rule="nonzero"/><path fill="#fffffe" d="M 206.125 243.589844 C 204.976562 243.589844 203.882812 242.863281 203.480469 241.710938 C 198.109375 225.949219 207.1875 218.863281 207.558594 218.570312 C 208.796875 217.648438 210.519531 217.890625 211.4375 219.109375 C 212.355469 220.328125 212.128906 222.050781 210.921875 222.976562 C 210.632812 223.226562 204.714844 228.175781 208.738281 239.917969 C 209.226562 241.367188 208.449219 242.945312 207.015625 243.4375 C 206.726562 243.542969 206.410156 243.589844 206.125 243.589844 Z M 206.125 243.589844 " fill-opacity="1" fill-rule="nonzero"/><path fill="#fffffe" d="M 220.3125 208.019531 C 218.933594 208.019531 217.757812 206.996094 217.554688 205.589844 C 215.34375 187.679688 204.257812 185.089844 203.769531 184.984375 C 202.273438 184.667969 201.328125 183.207031 201.644531 181.714844 C 201.929688 180.222656 203.394531 179.253906 204.859375 179.546875 C 205.492188 179.671875 220.3125 182.832031 223.070312 204.902344 C 223.273438 206.421875 222.179688 207.8125 220.660156 208 C 220.542969 208.015625 220.429688 208.019531 220.3125 208.019531 Z M 220.3125 208.019531 " fill-opacity="1" fill-rule="nonzero"/><path fill="#fffffe" d="M 217.066406 320.582031 L 217.097656 320.582031 Z M 222.554688 336.148438 C 222.554688 336.152344 222.554688 336.152344 222.554688 336.152344 C 222.554688 336.152344 222.554688 336.152344 222.554688 336.148438 Z M 225.167969 338.046875 C 224.046875 338.046875 223.015625 337.367188 222.582031 336.285156 C 221.320312 334.65625 212.5 331.792969 203.566406 330.121094 C 202.246094 329.871094 201.269531 328.699219 201.296875 327.347656 C 201.328125 325.996094 202.304688 324.855469 203.652344 324.652344 C 203.738281 324.640625 212.300781 323.296875 216.664062 320.796875 C 216.894531 320.664062 217.011719 320.558594 217.066406 320.503906 C 216.980469 319.886719 215.804688 318.457031 214.683594 317.574219 C 213.476562 316.640625 213.246094 314.902344 214.167969 313.6875 C 215.113281 312.480469 216.839844 312.25 218.042969 313.179688 C 218.878906 313.796875 222.871094 317.078125 222.613281 320.949219 C 222.527344 322.292969 221.894531 324.195312 219.421875 325.609375 C 218.332031 326.234375 217.066406 326.789062 215.746094 327.28125 C 221.777344 329.074219 226.804688 331.425781 227.8125 334.398438 C 228.269531 335.851562 227.496094 337.421875 226.03125 337.902344 C 225.742188 338 225.457031 338.046875 225.167969 338.046875 Z M 225.167969 338.046875 " fill-opacity="1" fill-rule="nonzero"/><path fill="#fffffe" d="M 268.800781 208.019531 C 268.6875 208.019531 268.570312 208.015625 268.457031 208 C 266.933594 207.8125 265.84375 206.421875 266.042969 204.902344 C 268.800781 182.832031 283.625 179.671875 284.253906 179.546875 C 285.75 179.253906 287.214844 180.230469 287.5 181.738281 C 287.789062 183.230469 286.839844 184.683594 285.316406 184.988281 C 284.800781 185.101562 273.769531 187.722656 271.53125 205.589844 C 271.359375 206.996094 270.179688 208.019531 268.800781 208.019531 Z M 268.800781 208.019531 " fill-opacity="1" fill-rule="nonzero"/><path fill="#fffffe" d="M 305.597656 262.710938 C 305.425781 262.710938 305.28125 262.699219 305.109375 262.671875 C 304.878906 262.636719 299.421875 261.710938 293.734375 260.136719 C 284.6875 257.621094 280.578125 255.0625 280.0625 251.582031 C 279.6875 249.003906 281.296875 246.78125 284.917969 244.976562 C 287.214844 243.832031 288.535156 242.261719 289.023438 240.179688 C 290.316406 234.351562 284.832031 225.691406 282.589844 222.847656 C 281.640625 221.644531 281.84375 219.902344 283.050781 218.957031 C 284.257812 218.007812 286.007812 218.21875 286.957031 219.417969 C 287.328125 219.917969 296.578125 231.789062 294.425781 241.386719 C 293.589844 245.09375 291.179688 248.050781 287.414062 249.9375 C 286.554688 250.363281 286.066406 250.707031 285.808594 250.933594 C 287.761719 252.835938 296.78125 255.65625 306.03125 257.199219 C 307.550781 257.453125 308.558594 258.882812 308.328125 260.390625 C 308.097656 261.75 306.917969 262.710938 305.597656 262.710938 Z M 305.597656 262.710938 " fill-opacity="1" fill-rule="nonzero"/><path fill="#fffffe" d="M 221.980469 269.199219 C 221.148438 269.199219 220.34375 268.84375 219.796875 268.160156 C 218.847656 266.960938 219.050781 265.214844 220.226562 264.257812 C 232.78125 254.234375 245.878906 257.554688 246.453125 257.703125 C 247.917969 258.09375 248.808594 259.613281 248.40625 261.09375 C 248.003906 262.570312 246.511719 263.453125 245.015625 263.066406 C 244.527344 262.941406 233.988281 260.386719 223.703125 268.59375 C 223.1875 269 222.582031 269.199219 221.980469 269.199219 Z M 221.980469 269.199219 " fill-opacity="1" fill-rule="nonzero"/><path fill="#fffffe" d="M 267.765625 336.152344 Z M 265.152344 338.046875 C 264.867188 338.046875 264.550781 338 264.261719 337.902344 C 262.828125 337.417969 262.023438 335.851562 262.511719 334.398438 C 263.515625 331.421875 268.542969 329.074219 274.574219 327.28125 C 273.253906 326.789062 271.988281 326.234375 270.898438 325.609375 C 268.429688 324.195312 267.796875 322.292969 267.710938 320.949219 C 267.453125 317.078125 271.445312 313.796875 272.25 313.175781 C 273.484375 312.246094 275.207031 312.476562 276.15625 313.695312 C 277.074219 314.90625 276.84375 316.644531 275.636719 317.574219 C 274.515625 318.457031 273.339844 319.886719 273.253906 320.503906 C 273.3125 320.558594 273.425781 320.664062 273.65625 320.796875 C 278.023438 323.296875 286.582031 324.640625 286.667969 324.648438 C 287.988281 324.855469 288.996094 325.996094 289.023438 327.347656 C 289.023438 328.699219 288.074219 329.871094 286.753906 330.121094 C 277.820312 331.792969 269.003906 334.65625 267.738281 336.285156 C 267.308594 337.367188 266.273438 338.046875 265.152344 338.046875 Z M 265.152344 338.046875 " fill-opacity="1" fill-rule="nonzero"/><path fill="#fffffe" d="M 269.492188 269.199219 C 268.886719 269.199219 268.285156 269 267.765625 268.59375 C 257.453125 260.367188 246.882812 262.953125 246.425781 263.066406 C 244.960938 263.449219 243.4375 262.558594 243.0625 261.082031 C 242.660156 259.601562 243.550781 258.09375 245.015625 257.703125 C 245.5625 257.554688 258.691406 254.234375 271.214844 264.257812 C 272.421875 265.214844 272.621094 266.960938 271.644531 268.160156 C 271.097656 268.84375 270.296875 269.199219 269.492188 269.199219 Z M 269.492188 269.199219 " fill-opacity="1" fill-rule="nonzero"/></svg>