<svg xmlns="http://www.w3.org/2000/svg" xmlns:xlink="http://www.w3.org/1999/xlink" width="1344" zoomAndPan="magnify" viewBox="0 0 1008 1295.99994" height="1728" preserveAspectRatio="xMidYMid meet" version="1.0"><defs><clipPath id="67dfc96451"><path d="M 0 0 L 28.5 0 L 28.5 28.5 L 0 28.5 Z M 0 0 " clip-rule="nonzero"/></clipPath></defs><rect x="-100.8" width="1209.6" fill="#ffffff" y="-129.599994" height="1555.199927" fill-opacity="1"/><rect x="-100.8" width="1209.6" fill="#ffffff" y="-129.599994" height="1555.199927" fill-opacity="1"/><g clip-path="url(#67dfc96451)"><path fill="#ab8f1f" d="M 28.640625 14.320312 C 28.640625 15.261719 28.546875 16.191406 28.363281 17.113281 C 28.183594 18.035156 27.910156 18.929688 27.550781 19.800781 C 27.191406 20.667969 26.75 21.496094 26.226562 22.277344 C 25.703125 23.058594 25.109375 23.78125 24.445312 24.445312 C 23.78125 25.109375 23.058594 25.703125 22.277344 26.226562 C 21.496094 26.75 20.667969 27.191406 19.800781 27.550781 C 18.929688 27.910156 18.035156 28.183594 17.113281 28.363281 C 16.191406 28.546875 15.261719 28.640625 14.320312 28.640625 C 13.378906 28.640625 12.449219 28.546875 11.527344 28.363281 C 10.605469 28.183594 9.707031 27.910156 8.839844 27.550781 C 7.972656 27.191406 7.144531 26.75 6.363281 26.226562 C 5.582031 25.703125 4.859375 25.109375 4.195312 24.445312 C 3.53125 23.78125 2.9375 23.058594 2.414062 22.277344 C 1.890625 21.496094 1.449219 20.667969 1.089844 19.800781 C 0.730469 18.929688 0.457031 18.035156 0.273438 17.113281 C 0.0898438 16.191406 0 15.261719 0 14.320312 C 0 13.378906 0.0898438 12.449219 0.273438 11.527344 C 0.457031 10.605469 0.730469 9.707031 1.089844 8.839844 C 1.449219 7.972656 1.890625 7.144531 2.414062 6.363281 C 2.9375 5.582031 3.53125 4.859375 4.195312 4.195312 C 4.859375 3.53125 5.582031 2.9375 6.363281 2.414062 C 7.144531 1.890625 7.972656 1.449219 8.839844 1.089844 C 9.707031 0.730469 10.605469 0.457031 11.527344 0.273438 C 12.449219 0.0898438 13.378906 0 14.320312 0 C 15.261719 0 16.191406 0.0898438 17.113281 0.273438 C 18.035156 0.457031 18.929688 0.730469 19.800781 1.089844 C 20.667969 1.449219 21.496094 1.890625 22.277344 2.414062 C 23.058594 2.9375 23.78125 3.53125 24.445312 4.195312 C 25.109375 4.859375 25.703125 5.582031 26.226562 6.363281 C 26.75 7.144531 27.191406 7.972656 27.550781 8.839844 C 27.910156 9.707031 28.183594 10.605469 28.363281 11.527344 C 28.546875 12.449219 28.640625 13.378906 28.640625 14.320312 Z M 28.640625 14.320312 " fill-opacity="1" fill-rule="nonzero"/></g><path fill="#fffffe" d="M 12.839844 5.550781 C 12.3125 5.550781 11.71875 5.707031 11.191406 5.949219 C 9.859375 6.5625 8.671875 7.832031 9.21875 9.175781 C 9.238281 9.222656 9.234375 9.277344 9.210938 9.320312 C 9.183594 9.363281 9.140625 9.394531 9.089844 9.398438 C 9.082031 9.402344 8.011719 9.546875 7.453125 10.363281 C 7.097656 10.878906 7.015625 11.5625 7.214844 12.390625 C 7.230469 12.449219 7.210938 12.511719 7.164062 12.550781 C 7.101562 12.601562 5.679688 13.855469 6.992188 15.617188 C 7.039062 15.679688 7.035156 15.765625 6.980469 15.824219 C 6.976562 15.832031 6.398438 16.476562 6.492188 17.3125 C 6.558594 17.925781 6.960938 18.5 7.691406 19.019531 C 7.738281 19.050781 7.765625 19.109375 7.757812 19.164062 C 7.628906 20.488281 8.816406 22.15625 10.351562 22.808594 C 11.164062 23.152344 12.730469 23.476562 14.160156 21.835938 L 14.160156 6.1875 C 13.90625 5.730469 13.410156 5.550781 12.839844 5.550781 Z M 11.671875 23.410156 C 11.195312 23.410156 10.703125 23.308594 10.226562 23.105469 C 9.425781 22.765625 8.6875 22.164062 8.160156 21.414062 C 7.648438 20.6875 7.390625 19.917969 7.429688 19.226562 C 6.667969 18.667969 6.242188 18.035156 6.171875 17.34375 C 6.085938 16.5625 6.480469 15.945312 6.660156 15.710938 C 5.960938 14.707031 6.0625 13.847656 6.277344 13.296875 C 6.457031 12.828125 6.746094 12.507812 6.878906 12.375 C 6.6875 11.492188 6.789062 10.753906 7.1875 10.175781 C 7.679688 9.460938 8.484375 9.199219 8.851562 9.117188 C 8.394531 7.644531 9.644531 6.304688 11.054688 5.652344 C 12.300781 5.082031 13.898438 4.96875 14.464844 6.074219 C 14.476562 6.097656 14.480469 6.121094 14.480469 6.148438 L 14.480469 21.898438 C 14.480469 21.9375 14.46875 21.972656 14.441406 22.003906 C 13.832031 22.722656 13.125 23.175781 12.34375 23.339844 C 12.125 23.386719 11.898438 23.410156 11.671875 23.410156 Z M 11.671875 23.410156 " fill-opacity="1" fill-rule="nonzero"/><path fill="#fffffe" d="M 14.320312 9.894531 C 14.316406 9.894531 14.316406 9.894531 14.3125 9.894531 C 14.230469 9.890625 12.347656 9.789062 11.671875 8.742188 C 11.621094 8.664062 11.640625 8.566406 11.71875 8.515625 C 11.792969 8.46875 11.894531 8.492188 11.941406 8.566406 C 12.53125 9.472656 14.3125 9.570312 14.328125 9.574219 C 14.417969 9.578125 14.488281 9.652344 14.480469 9.742188 C 14.476562 9.828125 14.40625 9.894531 14.320312 9.894531 Z M 14.320312 9.894531 " fill-opacity="1" fill-rule="nonzero"/><path fill="#fffffe" d="M 8.953125 11.726562 C 8.925781 11.726562 8.898438 11.71875 8.875 11.703125 C 8.796875 11.660156 8.769531 11.5625 8.8125 11.484375 C 9.109375 10.957031 9.652344 10.792969 10.117188 10.761719 C 9.25 10.179688 8.933594 9.339844 8.917969 9.292969 C 8.886719 9.210938 8.929688 9.117188 9.015625 9.085938 C 9.097656 9.054688 9.191406 9.097656 9.222656 9.183594 C 9.226562 9.195312 9.683594 10.394531 10.984375 10.828125 C 11.066406 10.855469 11.113281 10.941406 11.089844 11.027344 C 11.066406 11.109375 10.980469 11.160156 10.894531 11.140625 C 10.882812 11.136719 9.550781 10.832031 9.09375 11.644531 C 9.0625 11.695312 9.007812 11.726562 8.953125 11.726562 Z M 8.953125 11.726562 " fill-opacity="1" fill-rule="nonzero"/><path fill="#fffffe" d="M 8.019531 14.695312 C 7.96875 14.695312 7.914062 14.667969 7.882812 14.617188 C 7.835938 14.542969 7.859375 14.441406 7.9375 14.394531 C 8.628906 13.96875 8.792969 13.335938 8.796875 13.328125 C 8.8125 13.261719 8.867188 13.214844 8.9375 13.207031 C 9.578125 13.144531 9.949219 13.226562 10.097656 13.46875 C 10.152344 13.558594 10.167969 13.652344 10.160156 13.746094 C 10.351562 13.59375 10.609375 13.390625 10.949219 13.125 C 10.957031 13.121094 10.960938 13.117188 10.96875 13.113281 C 11.695312 12.6875 12.523438 12.578125 13.359375 12.800781 C 13.988281 12.96875 14.398438 13.261719 14.414062 13.273438 C 14.488281 13.328125 14.503906 13.429688 14.453125 13.5 C 14.398438 13.574219 14.296875 13.589844 14.226562 13.539062 C 14.160156 13.492188 12.707031 12.472656 11.140625 13.386719 C 10.703125 13.726562 10.410156 13.960938 10.214844 14.117188 C 10.089844 14.214844 10.007812 14.28125 9.953125 14.320312 C 9.878906 14.378906 9.769531 14.460938 9.664062 14.363281 C 9.554688 14.269531 9.632812 14.152344 9.675781 14.082031 C 9.734375 13.988281 9.890625 13.75 9.824219 13.640625 C 9.796875 13.597656 9.671875 13.476562 9.074219 13.519531 C 8.988281 13.75 8.734375 14.285156 8.105469 14.671875 C 8.078125 14.6875 8.050781 14.695312 8.019531 14.695312 Z M 8.019531 14.695312 " fill-opacity="1" fill-rule="nonzero"/><path fill="#fffffe" d="M 8.964844 22.25 C 8.957031 22.25 8.941406 22.25 8.929688 22.246094 C 8.84375 22.226562 8.789062 22.140625 8.808594 22.054688 C 8.816406 22.019531 8.992188 21.230469 9.296875 20.433594 C 9.730469 19.292969 10.183594 18.75 10.679688 18.78125 C 10.757812 18.785156 10.820312 18.839844 10.832031 18.914062 C 10.839844 18.953125 11.015625 19.886719 12.25 20.421875 C 12.320312 20.453125 12.359375 20.527344 12.34375 20.605469 C 12.328125 20.679688 12.261719 20.734375 12.1875 20.734375 C 12.179688 20.734375 11.570312 20.738281 11.296875 21.0625 C 11.183594 21.195312 11.144531 21.371094 11.179688 21.59375 C 11.195312 21.679688 11.136719 21.765625 11.046875 21.777344 C 10.960938 21.792969 10.878906 21.734375 10.863281 21.644531 C 10.808594 21.328125 10.871094 21.0625 11.050781 20.851562 C 11.214844 20.65625 11.457031 20.546875 11.671875 20.484375 C 10.90625 20.011719 10.636719 19.394531 10.550781 19.117188 C 9.964844 19.289062 9.375 21.007812 9.125 22.125 C 9.109375 22.199219 9.039062 22.25 8.964844 22.25 Z M 8.964844 22.25 " fill-opacity="1" fill-rule="nonzero"/><path fill="#fffffe" d="M 9.011719 19.003906 C 8.980469 19.003906 8.953125 18.996094 8.929688 18.980469 C 8.855469 18.933594 8.828125 18.84375 8.867188 18.765625 C 8.804688 18.71875 8.601562 18.667969 8.417969 18.652344 C 8.367188 18.648438 8.320312 18.621094 8.292969 18.578125 C 7.941406 18.015625 8.800781 17.183594 8.898438 17.09375 C 8.960938 17.035156 9.054688 17.035156 9.117188 17.089844 C 9.683594 17.574219 10.910156 16.425781 11.335938 15.941406 C 11.371094 15.898438 11.425781 15.878906 11.480469 15.886719 C 11.535156 15.894531 11.582031 15.929688 11.605469 15.980469 C 12.355469 17.648438 14.273438 17.308594 14.289062 17.304688 C 14.378906 17.289062 14.464844 17.347656 14.480469 17.433594 C 14.496094 17.523438 14.4375 17.609375 14.351562 17.625 C 14.328125 17.628906 13.796875 17.726562 13.160156 17.589844 C 12.386719 17.429688 11.785156 16.992188 11.417969 16.328125 C 11.25 16.5 10.964844 16.777344 10.636719 17.019531 C 9.832031 17.617188 9.328125 17.59375 9.027344 17.421875 C 8.792969 17.667969 8.476562 18.089844 8.539062 18.339844 C 8.746094 18.367188 9.066406 18.4375 9.167969 18.628906 C 9.214844 18.722656 9.207031 18.824219 9.148438 18.925781 C 9.121094 18.976562 9.066406 19.003906 9.011719 19.003906 Z M 9.011719 19.003906 " fill-opacity="1" fill-rule="nonzero"/><path fill="#fffffe" d="M 16.96875 23.410156 C 16.742188 23.410156 16.515625 23.386719 16.296875 23.339844 C 15.515625 23.175781 14.8125 22.722656 14.195312 22.003906 C 14.140625 21.933594 14.148438 21.832031 14.214844 21.773438 C 14.285156 21.714844 14.386719 21.726562 14.441406 21.792969 C 15.882812 23.484375 17.46875 23.152344 18.289062 22.808594 C 19.824219 22.15625 21.011719 20.488281 20.882812 19.164062 C 20.875 19.109375 20.902344 19.050781 20.949219 19.019531 C 21.679688 18.5 22.085938 17.925781 22.148438 17.308594 C 22.238281 16.46875 21.664062 15.832031 21.660156 15.824219 C 21.609375 15.765625 21.601562 15.679688 21.648438 15.617188 C 22.960938 13.855469 21.539062 12.601562 21.476562 12.550781 C 21.433594 12.511719 21.410156 12.449219 21.425781 12.390625 C 21.625 11.5625 21.546875 10.878906 21.1875 10.363281 C 20.628906 9.546875 19.558594 9.402344 19.550781 9.398438 C 19.5 9.394531 19.457031 9.363281 19.429688 9.320312 C 19.40625 9.277344 19.402344 9.222656 19.421875 9.175781 C 19.96875 7.832031 18.785156 6.5625 17.449219 5.949219 C 16.339844 5.4375 14.933594 5.304688 14.464844 6.222656 C 14.425781 6.300781 14.324219 6.332031 14.246094 6.292969 C 14.167969 6.25 14.136719 6.152344 14.175781 6.074219 C 14.742188 4.96875 16.339844 5.082031 17.582031 5.652344 C 18.996094 6.304688 20.246094 7.644531 19.785156 9.117188 C 20.15625 9.199219 20.960938 9.460938 21.453125 10.175781 C 21.851562 10.753906 21.957031 11.492188 21.757812 12.375 C 21.894531 12.507812 22.179688 12.828125 22.363281 13.296875 C 22.578125 13.847656 22.679688 14.707031 21.980469 15.710938 C 22.160156 15.945312 22.554688 16.5625 22.472656 17.34375 C 22.398438 18.035156 21.972656 18.667969 21.210938 19.226562 C 21.25 19.917969 20.992188 20.6875 20.480469 21.414062 C 19.949219 22.164062 19.21875 22.765625 18.414062 23.105469 C 17.9375 23.308594 17.445312 23.410156 16.96875 23.410156 Z M 16.96875 23.410156 " fill-opacity="1" fill-rule="nonzero"/><path fill="#fffffe" d="M 14.320312 9.894531 C 14.234375 9.894531 14.164062 9.828125 14.160156 9.742188 C 14.15625 9.652344 14.222656 9.578125 14.3125 9.574219 C 14.332031 9.570312 16.113281 9.472656 16.699219 8.566406 C 16.746094 8.492188 16.847656 8.46875 16.921875 8.515625 C 16.996094 8.566406 17.019531 8.664062 16.96875 8.742188 C 16.292969 9.789062 14.40625 9.890625 14.328125 9.894531 C 14.324219 9.894531 14.324219 9.894531 14.320312 9.894531 Z M 14.320312 9.894531 " fill-opacity="1" fill-rule="nonzero"/><path fill="#fffffe" d="M 19.6875 11.726562 C 19.628906 11.726562 19.578125 11.695312 19.546875 11.644531 C 19.089844 10.828125 17.757812 11.136719 17.746094 11.140625 C 17.660156 11.160156 17.578125 11.109375 17.554688 11.027344 C 17.53125 10.941406 17.574219 10.855469 17.65625 10.828125 C 18.964844 10.390625 19.414062 9.195312 19.417969 9.183594 C 19.449219 9.101562 19.542969 9.054688 19.625 9.085938 C 19.710938 9.117188 19.753906 9.210938 19.722656 9.292969 C 19.707031 9.339844 19.390625 10.179688 18.523438 10.761719 C 18.988281 10.792969 19.53125 10.957031 19.828125 11.484375 C 19.871094 11.5625 19.84375 11.660156 19.765625 11.703125 C 19.742188 11.71875 19.714844 11.726562 19.6875 11.726562 Z M 19.6875 11.726562 " fill-opacity="1" fill-rule="nonzero"/><path fill="#fffffe" d="M 20.617188 14.695312 C 20.589844 14.695312 20.5625 14.6875 20.535156 14.671875 C 19.90625 14.285156 19.652344 13.75 19.566406 13.519531 C 18.972656 13.476562 18.84375 13.597656 18.820312 13.640625 C 18.75 13.75 18.90625 13.988281 18.964844 14.082031 C 19.007812 14.152344 19.082031 14.269531 18.976562 14.363281 C 18.871094 14.460938 18.761719 14.378906 18.6875 14.320312 C 18.632812 14.28125 18.550781 14.214844 18.425781 14.117188 C 18.230469 13.960938 17.9375 13.726562 17.5 13.386719 C 15.929688 12.472656 14.476562 13.492188 14.414062 13.539062 C 14.34375 13.589844 14.242188 13.574219 14.191406 13.5 C 14.136719 13.429688 14.152344 13.328125 14.226562 13.273438 C 14.242188 13.261719 14.652344 12.96875 15.28125 12.800781 C 16.117188 12.578125 16.945312 12.6875 17.671875 13.113281 C 17.679688 13.117188 17.683594 13.121094 17.691406 13.125 C 18.035156 13.390625 18.289062 13.59375 18.480469 13.746094 C 18.472656 13.652344 18.488281 13.558594 18.542969 13.46875 C 18.691406 13.226562 19.0625 13.144531 19.703125 13.207031 C 19.769531 13.214844 19.828125 13.261719 19.84375 13.328125 C 19.847656 13.335938 20.015625 13.972656 20.703125 14.394531 C 20.777344 14.441406 20.804688 14.542969 20.757812 14.617188 C 20.726562 14.667969 20.671875 14.695312 20.617188 14.695312 Z M 20.617188 14.695312 " fill-opacity="1" fill-rule="nonzero"/><path fill="#fffffe" d="M 19.671875 22.253906 C 19.597656 22.253906 19.53125 22.203125 19.511719 22.125 C 19.265625 21.011719 18.671875 19.292969 18.085938 19.121094 C 18 19.398438 17.730469 20.011719 16.964844 20.488281 C 17.179688 20.550781 17.421875 20.660156 17.585938 20.855469 C 17.765625 21.066406 17.828125 21.332031 17.777344 21.648438 C 17.761719 21.738281 17.675781 21.796875 17.589844 21.78125 C 17.5 21.765625 17.441406 21.683594 17.457031 21.597656 C 17.492188 21.375 17.457031 21.199219 17.339844 21.0625 C 17.113281 20.796875 16.621094 20.734375 16.453125 20.734375 C 16.375 20.734375 16.308594 20.683594 16.292969 20.609375 C 16.277344 20.53125 16.316406 20.457031 16.386719 20.425781 C 17.632812 19.886719 17.804688 18.925781 17.804688 18.917969 C 17.816406 18.84375 17.882812 18.789062 17.957031 18.78125 C 18.453125 18.753906 18.902344 19.296875 19.339844 20.4375 C 19.644531 21.234375 19.820312 22.023438 19.828125 22.054688 C 19.847656 22.144531 19.792969 22.230469 19.707031 22.25 C 19.695312 22.253906 19.683594 22.253906 19.671875 22.253906 Z M 19.671875 22.253906 " fill-opacity="1" fill-rule="nonzero"/><path fill="#fffffe" d="M 19.628906 19.003906 C 19.574219 19.003906 19.519531 18.976562 19.488281 18.925781 C 19.429688 18.824219 19.425781 18.722656 19.472656 18.628906 C 19.574219 18.4375 19.898438 18.367188 20.101562 18.339844 C 20.164062 18.089844 19.847656 17.667969 19.613281 17.421875 C 19.3125 17.59375 18.808594 17.617188 18.003906 17.019531 C 17.675781 16.777344 17.390625 16.5 17.226562 16.328125 C 16.851562 16.992188 16.253906 17.429688 15.480469 17.589844 C 14.839844 17.726562 14.3125 17.628906 14.289062 17.625 C 14.203125 17.609375 14.144531 17.523438 14.160156 17.433594 C 14.179688 17.347656 14.261719 17.289062 14.351562 17.304688 C 14.363281 17.308594 14.851562 17.394531 15.421875 17.273438 C 16.179688 17.109375 16.722656 16.675781 17.039062 15.980469 C 17.058594 15.929688 17.105469 15.894531 17.160156 15.886719 C 17.214844 15.878906 17.269531 15.898438 17.304688 15.941406 C 17.730469 16.425781 18.957031 17.574219 19.523438 17.089844 C 19.585938 17.035156 19.679688 17.035156 19.738281 17.09375 C 19.839844 17.183594 20.699219 18.015625 20.347656 18.578125 C 20.320312 18.621094 20.273438 18.648438 20.222656 18.652344 C 20.039062 18.667969 19.835938 18.71875 19.773438 18.765625 C 19.8125 18.84375 19.785156 18.933594 19.710938 18.980469 C 19.6875 18.996094 19.65625 19.003906 19.628906 19.003906 Z M 19.628906 19.003906 " fill-opacity="1" fill-rule="nonzero"/><path fill="#fffffe" d="M 12.011719 14.195312 C 11.945312 14.195312 11.882812 14.152344 11.859375 14.085938 C 11.546875 13.167969 12.074219 12.753906 12.097656 12.738281 C 12.167969 12.683594 12.269531 12.699219 12.320312 12.769531 C 12.375 12.839844 12.363281 12.941406 12.292969 12.996094 C 12.273438 13.007812 11.929688 13.296875 12.164062 13.980469 C 12.191406 14.066406 12.148438 14.15625 12.0625 14.1875 C 12.046875 14.191406 12.027344 14.195312 12.011719 14.195312 Z M 12.011719 14.195312 " fill-opacity="1" fill-rule="nonzero"/><path fill="#fffffe" d="M 12.839844 12.121094 C 12.757812 12.121094 12.691406 12.0625 12.679688 11.980469 C 12.550781 10.9375 11.902344 10.785156 11.875 10.78125 C 11.789062 10.761719 11.734375 10.675781 11.75 10.589844 C 11.769531 10.503906 11.851562 10.445312 11.9375 10.464844 C 11.976562 10.46875 12.839844 10.65625 13 11.941406 C 13.011719 12.03125 12.949219 12.109375 12.859375 12.121094 C 12.851562 12.121094 12.847656 12.121094 12.839844 12.121094 Z M 12.839844 12.121094 " fill-opacity="1" fill-rule="nonzero"/><path fill="#fffffe" d="M 12.648438 18.683594 L 12.652344 18.683594 Z M 12.96875 19.589844 Z M 13.121094 19.699219 C 13.058594 19.699219 12.996094 19.660156 12.972656 19.597656 C 12.898438 19.503906 12.382812 19.335938 11.863281 19.238281 C 11.785156 19.222656 11.730469 19.15625 11.730469 19.078125 C 11.734375 18.996094 11.789062 18.929688 11.867188 18.917969 C 11.875 18.917969 12.371094 18.839844 12.625 18.695312 C 12.640625 18.6875 12.648438 18.679688 12.648438 18.679688 C 12.644531 18.640625 12.578125 18.558594 12.511719 18.507812 C 12.441406 18.453125 12.425781 18.351562 12.480469 18.28125 C 12.535156 18.210938 12.636719 18.195312 12.707031 18.25 C 12.753906 18.285156 12.988281 18.476562 12.972656 18.703125 C 12.96875 18.78125 12.929688 18.894531 12.789062 18.976562 C 12.722656 19.011719 12.648438 19.042969 12.574219 19.074219 C 12.925781 19.175781 13.21875 19.3125 13.277344 19.488281 C 13.304688 19.570312 13.257812 19.664062 13.171875 19.691406 C 13.15625 19.699219 13.140625 19.699219 13.121094 19.699219 Z M 13.121094 19.699219 " fill-opacity="1" fill-rule="nonzero"/><path fill="#fffffe" d="M 15.664062 12.121094 C 15.65625 12.121094 15.652344 12.121094 15.644531 12.121094 C 15.554688 12.109375 15.492188 12.03125 15.503906 11.941406 C 15.664062 10.65625 16.527344 10.46875 16.566406 10.464844 C 16.652344 10.445312 16.738281 10.503906 16.753906 10.589844 C 16.769531 10.679688 16.714844 10.761719 16.628906 10.78125 C 16.597656 10.785156 15.953125 10.941406 15.824219 11.980469 C 15.8125 12.0625 15.746094 12.121094 15.664062 12.121094 Z M 15.664062 12.121094 " fill-opacity="1" fill-rule="nonzero"/><path fill="#fffffe" d="M 17.808594 15.308594 C 17.800781 15.308594 17.789062 15.308594 17.78125 15.308594 C 17.765625 15.304688 17.449219 15.25 17.117188 15.160156 C 16.589844 15.011719 16.351562 14.863281 16.320312 14.660156 C 16.300781 14.511719 16.394531 14.382812 16.605469 14.277344 C 16.738281 14.210938 16.816406 14.117188 16.84375 13.996094 C 16.917969 13.65625 16.597656 13.152344 16.46875 12.988281 C 16.414062 12.917969 16.425781 12.816406 16.496094 12.761719 C 16.566406 12.703125 16.667969 12.71875 16.722656 12.785156 C 16.746094 12.816406 17.285156 13.507812 17.15625 14.066406 C 17.109375 14.285156 16.96875 14.457031 16.75 14.566406 C 16.699219 14.589844 16.671875 14.609375 16.65625 14.625 C 16.769531 14.734375 17.296875 14.898438 17.835938 14.988281 C 17.921875 15.003906 17.980469 15.085938 17.96875 15.175781 C 17.953125 15.253906 17.886719 15.308594 17.808594 15.308594 Z M 17.808594 15.308594 " fill-opacity="1" fill-rule="nonzero"/><path fill="#fffffe" d="M 12.9375 15.6875 C 12.886719 15.6875 12.839844 15.667969 12.808594 15.628906 C 12.753906 15.558594 12.765625 15.457031 12.835938 15.398438 C 13.566406 14.816406 14.328125 15.007812 14.363281 15.019531 C 14.449219 15.039062 14.5 15.128906 14.476562 15.214844 C 14.453125 15.300781 14.367188 15.351562 14.277344 15.332031 C 14.25 15.324219 13.636719 15.175781 13.035156 15.652344 C 13.007812 15.675781 12.972656 15.6875 12.9375 15.6875 Z M 12.9375 15.6875 " fill-opacity="1" fill-rule="nonzero"/><path fill="#fffffe" d="M 15.605469 19.589844 Z M 15.453125 19.699219 C 15.433594 19.699219 15.417969 19.699219 15.398438 19.691406 C 15.316406 19.664062 15.269531 19.570312 15.296875 19.488281 C 15.355469 19.3125 15.648438 19.175781 16 19.074219 C 15.925781 19.042969 15.851562 19.011719 15.785156 18.976562 C 15.644531 18.894531 15.605469 18.78125 15.601562 18.703125 C 15.585938 18.476562 15.820312 18.285156 15.867188 18.25 C 15.9375 18.195312 16.039062 18.210938 16.09375 18.28125 C 16.148438 18.351562 16.132812 18.453125 16.0625 18.507812 C 15.996094 18.558594 15.929688 18.640625 15.925781 18.679688 C 15.925781 18.679688 15.933594 18.6875 15.949219 18.695312 C 16.203125 18.839844 16.699219 18.917969 16.707031 18.917969 C 16.78125 18.929688 16.839844 18.996094 16.84375 19.078125 C 16.84375 19.15625 16.789062 19.222656 16.710938 19.238281 C 16.191406 19.335938 15.675781 19.503906 15.601562 19.597656 C 15.578125 19.660156 15.515625 19.699219 15.453125 19.699219 Z M 15.453125 19.699219 " fill-opacity="1" fill-rule="nonzero"/><path fill="#fffffe" d="M 15.703125 15.6875 C 15.667969 15.6875 15.632812 15.675781 15.605469 15.652344 C 15.003906 15.171875 14.386719 15.324219 14.359375 15.332031 C 14.277344 15.351562 14.1875 15.300781 14.164062 15.214844 C 14.140625 15.128906 14.195312 15.039062 14.277344 15.019531 C 14.3125 15.007812 15.074219 14.816406 15.804688 15.398438 C 15.875 15.457031 15.886719 15.558594 15.832031 15.628906 C 15.796875 15.667969 15.75 15.6875 15.703125 15.6875 Z M 15.703125 15.6875 " fill-opacity="1" fill-rule="nonzero"/></svg>